<svg width="50" height="50" viewBox="0 0 50 50" fill="none" xmlns="http://www.w3.org/2000/svg">
<rect x="0.5" y="0.5" width="49" height="49" rx="24.5" stroke="#E74C3C"/>
<path d="M7 30.0667L31 6.28089M18.9037 43.6301L43 19.9333M16 6H30.1429C30.9143 6 31.4286 6.50667 31.4286 7.26667V21.2M34 44H19.8571C19.0857 44 18.5714 43.4933 18.5714 42.7333V28.8" stroke="#E74C3C" stroke-linecap="round"/>
<path d="M3.70829 27.1047L8.21309 28.1624L8.26531 28.1101L7.20767 23.6054L8.16086 22.6522L9.40131 28.0971L14.8462 29.3375L13.893 30.2907L9.44048 29.2853L9.38825 29.3375L10.3937 33.7901L9.44048 34.7433L8.25226 29.2461L2.7551 28.0579L3.70829 27.1047ZM9.21442 21.5986L10.1807 20.6324L18.002 23.9097L18.0804 23.8314L14.803 16.01L15.7692 15.0438L22.4546 21.7292L21.6973 22.4865L16.618 17.4072L16.5527 17.4725L19.5428 24.641L18.8116 25.3722L11.6431 22.382L11.5778 22.4473L16.6571 27.5266L15.8998 28.284L9.21442 21.5986ZM24.0778 20.106L17.3924 13.4206L18.202 12.611L24.1692 18.5783L27.2768 15.4706L27.995 16.1888L24.0778 20.106Z" fill="white" fill-opacity="0.5"/>
<path d="M30.7854 29.4989L29.9758 30.3084C29.6951 30.1235 29.4067 30.0027 29.1108 29.9461C28.817 29.8873 28.5254 29.883 28.2359 29.933C27.9465 29.9787 27.669 30.0734 27.4035 30.217C27.138 30.3607 26.8943 30.5435 26.6723 30.7654C26.2675 31.1702 26.0031 31.6392 25.8791 32.1724C25.7572 32.7034 25.7986 33.2648 26.0031 33.8568C26.2099 34.4465 26.6027 35.0309 27.1816 35.6097C27.7604 36.1886 28.3447 36.5814 28.9345 36.7882C29.5264 36.9927 30.0879 37.0341 30.6189 36.9122C31.1521 36.7882 31.6211 36.5237 32.0258 36.119C32.2478 35.897 32.4306 35.6533 32.5742 35.3878C32.7179 35.1223 32.8136 34.8459 32.8615 34.5586C32.9094 34.267 32.9039 33.9743 32.8452 33.6805C32.7864 33.3824 32.6656 33.094 32.4828 32.8155L33.2924 32.0059C33.5731 32.4085 33.7679 32.8252 33.8767 33.2561C33.9855 33.687 34.0149 34.1168 33.9649 34.5456C33.9126 34.9721 33.7864 35.3834 33.5862 35.7795C33.3882 36.1734 33.1205 36.539 32.7832 36.8763C32.213 37.4465 31.5667 37.8142 30.8441 37.9796C30.1216 38.145 29.3763 38.0982 28.6081 37.8393C27.8399 37.5803 27.1032 37.0983 26.3981 36.3932C25.693 35.6881 25.211 34.9514 24.952 34.1832C24.693 33.415 24.6462 32.6696 24.8116 31.9471C24.977 31.2246 25.3448 30.5783 25.915 30.0081C26.2523 29.6708 26.6179 29.4031 27.0118 29.2051C27.4079 29.0049 27.8203 28.8797 28.249 28.8297C28.6755 28.7775 29.1043 28.8058 29.5351 28.9146C29.9639 29.0212 30.3806 29.216 30.7854 29.4989ZM35.3318 24.1168C34.9618 23.8252 34.5462 23.7273 34.0848 23.823C33.6235 23.9188 33.1904 24.169 32.7856 24.5738C32.4896 24.8698 32.2786 25.1766 32.1523 25.4943C32.0283 25.8099 31.988 26.1135 32.0315 26.4051C32.0773 26.6945 32.2067 26.9459 32.42 27.1592C32.5985 27.3376 32.7943 27.4486 33.0076 27.4921C33.2209 27.5313 33.4374 27.5259 33.6572 27.4758C33.8748 27.4236 34.0848 27.3507 34.2872 27.2571C34.4874 27.1613 34.6659 27.0678 34.8226 26.9764L35.6843 26.4802C35.9041 26.3518 36.1609 26.2212 36.4547 26.0885C36.7507 25.9535 37.0663 25.8578 37.4014 25.8012C37.7365 25.7403 38.076 25.7533 38.4199 25.8404C38.7637 25.9274 39.0923 26.1276 39.4057 26.441C39.767 26.8023 39.9987 27.2234 40.101 27.7043C40.2055 28.1831 40.163 28.6891 39.9737 29.2222C39.7865 29.7532 39.4362 30.2755 38.9226 30.7891C38.4438 31.2679 37.952 31.6052 37.4471 31.8011C36.9444 31.9947 36.4547 32.0535 35.9781 31.9773C35.5037 31.899 35.0707 31.6901 34.6789 31.3506L35.5146 30.5149C35.7888 30.7456 36.0826 30.8696 36.396 30.887C36.7094 30.9001 37.0206 30.8326 37.3296 30.6847C37.6386 30.5323 37.9259 30.3234 38.1914 30.0579C38.5004 29.7489 38.7278 29.4214 38.8736 29.0753C39.0172 28.7271 39.0706 28.3909 39.0336 28.0667C38.9944 27.7402 38.8529 27.4551 38.6092 27.2114C38.3872 26.9894 38.1446 26.8708 37.8813 26.8556C37.6179 26.8403 37.3415 26.8904 37.0521 27.0057C36.7627 27.1211 36.4678 27.2636 36.1675 27.4334L35.1098 28.021C34.4374 28.3931 33.8095 28.5922 33.2263 28.6183C32.6431 28.6444 32.1262 28.4323 31.6757 27.9818C31.3014 27.6075 31.0762 27.1798 31 26.6989C30.9238 26.2136 30.9804 25.7218 31.1698 25.2234C31.3591 24.7207 31.667 24.2561 32.0936 23.8295C32.5245 23.3986 32.9847 23.0929 33.4744 22.9123C33.9619 22.7295 34.4363 22.6729 34.8976 22.7425C35.3612 22.81 35.767 23.0069 36.1152 23.3334L35.3318 24.1168ZM36.1405 19.9654L43.753 23.6084L43.8313 23.53L40.1883 15.9176L41.0371 15.0689L45.2676 24.209L44.432 25.0447L35.2918 20.8141L36.1405 19.9654Z" fill="white" fill-opacity="0.5"/>
</svg>
